# xmcd
#
# Track frame offsets:
#	150
#	16557
#	26690
#
# Disc length: 542 seconds
#
# Revision: 1
# Processed by: cddbd v1.5.2PL0 Copyright (c) Steve Scherf et al.
# Submitted via: EasyCDDAExtractor 16.0.0.1
#
DISCID=13021c03
DTITLE=Sworn Enemy - Sampler
DYEAR=2002
DGENRE=Hardcore
TTITLE0=Sworn Enemy
TTITLE1=My Misery
TTITLE2=As Real As It Gets
EXTD=YEAR: 2002
EXTT0=
EXTT1=
EXTT2=
PLAYORDER=
